<svg width="166" height="105" viewBox="0 0 166 105" fill="none" xmlns="http://www.w3.org/2000/svg">
<path d="M80.12 66H79.12V67H80.12V66ZM80.12 58.342H81.12V58.243L81.1006 58.1459L80.12 58.342ZM79.84 56.942L78.8961 56.6116L78.8058 56.8699L78.8594 57.1381L79.84 56.942ZM80.134 56.102V55.102H79.4245L79.1901 55.7716L80.134 56.102ZM82.808 56.102L83.6967 55.6436L83.4174 55.102H82.808V56.102ZM85.552 61.422L84.6633 61.8804L84.9426 62.422H85.552V61.422ZM85.832 61.422V62.422H86.4928L86.7519 61.8142L85.832 61.422ZM88.1 56.102V55.102H87.4392L87.1801 55.7098L88.1 56.102ZM90.886 56.102L91.8724 55.9376L91.7331 55.102H90.886V56.102ZM91.026 56.942L92.0206 57.0456L92.0346 56.911L92.0124 56.7776L91.026 56.942ZM90.886 58.286L89.8914 58.1824L89.886 58.2341V58.286H90.886ZM90.886 66V67H91.886V66H90.886ZM88.352 66L87.3526 65.9647L87.3161 67H88.352V66ZM88.394 64.81L89.3934 64.8453L89.394 64.8276V64.81H88.394ZM88.394 60.904H89.394V59.904H88.394V60.904ZM88.24 60.904V59.904H87.5733L87.3169 60.5194L88.24 60.904ZM87.68 62.248L88.5615 62.7202L88.5844 62.6774L88.6031 62.6326L87.68 62.248ZM86.42 64.6V65.6H87.0187L87.3015 65.0722L86.42 64.6ZM84.74 64.6L83.8538 65.0633L84.1343 65.6H84.74V64.6ZM82.808 60.904L83.6942 60.4407L83.4137 59.904H82.808V60.904ZM82.668 60.904V59.904H81.668V60.904H82.668ZM82.668 62.038H81.668V62.0557L81.6686 62.0733L82.668 62.038ZM82.808 66V67H83.844L83.8074 65.9647L82.808 66ZM81.12 66V58.342H79.12V66H81.12ZM81.1006 58.1459L80.8206 56.7459L78.8594 57.1381L79.1394 58.5381L81.1006 58.1459ZM80.7839 57.2724L81.0779 56.4324L79.1901 55.7716L78.8961 56.6116L80.7839 57.2724ZM80.134 57.102H82.808V55.102H80.134V57.102ZM81.9193 56.5604L84.6633 61.8804L86.4407 60.9636L83.6967 55.6436L81.9193 56.5604ZM85.552 62.422H85.832V60.422H85.552V62.422ZM86.7519 61.8142L89.0199 56.4942L87.1801 55.7098L84.9121 61.0298L86.7519 61.8142ZM88.1 57.102H90.886V55.102H88.1V57.102ZM89.8996 56.2664L90.0396 57.1064L92.0124 56.7776L91.8724 55.9376L89.8996 56.2664ZM90.0314 56.8384L89.8914 58.1824L91.8806 58.3896L92.0206 57.0456L90.0314 56.8384ZM89.886 58.286V66H91.886V58.286H89.886ZM90.886 65H88.352V67H90.886V65ZM89.3514 66.0353L89.3934 64.8453L87.3946 64.7747L87.3526 65.9647L89.3514 66.0353ZM89.394 64.81V60.904H87.394V64.81H89.394ZM88.394 59.904H88.24V61.904H88.394V59.904ZM87.3169 60.5194L86.7569 61.8634L88.6031 62.6326L89.1631 61.2886L87.3169 60.5194ZM86.7985 61.7758L85.5385 64.1278L87.3015 65.0722L88.5615 62.7202L86.7985 61.7758ZM86.42 63.6H84.74V65.6H86.42V63.6ZM85.6262 64.1367L83.6942 60.4407L81.9218 61.3673L83.8538 65.0633L85.6262 64.1367ZM82.808 59.904H82.668V61.904H82.808V59.904ZM81.668 60.904V62.038H83.668V60.904H81.668ZM81.6686 62.0733L81.8086 66.0353L83.8074 65.9647L83.6674 62.0027L81.6686 62.0733ZM82.808 65H80.12V67H82.808V65ZM93.4052 65.972L93.0656 66.9126L93.0811 66.9181L93.0967 66.9232L93.4052 65.972ZM92.6352 62.99L93.4323 63.5939L93.4323 63.5939L92.6352 62.99ZM93.5872 62.304L93.936 63.2412L93.936 63.2412L93.5872 62.304ZM96.0372 62.248L95.6182 63.156L95.6328 63.1627L95.6476 63.169L96.0372 62.248ZM96.6672 62.57L96.1332 63.4155L96.7575 63.8097L97.318 63.3293L96.6672 62.57ZM96.7652 62.486L97.416 63.2453L97.7652 62.9459V62.486H96.7652ZM96.6952 61.786L97.6654 61.5435L97.6654 61.5435L96.6952 61.786ZM96.3732 61.366L95.8518 62.2193L95.8695 62.2301L95.8876 62.2402L96.3732 61.366ZM94.4832 61.31L94.628 62.2995L94.6378 62.298L94.6476 62.2964L94.4832 61.31ZM93.4192 61.534L93.6751 62.5007L93.6846 62.4982L93.694 62.4955L93.4192 61.534ZM92.7052 61.786H91.7052V63.4469L93.1731 62.6698L92.7052 61.786ZM92.7052 59.686L92.3708 58.7436L91.7052 58.9797V59.686H92.7052ZM93.9372 59.406L94.0932 60.3939L94.1071 60.3915L93.9372 59.406ZM97.9132 59.588L97.5087 60.5025L97.5192 60.5072L97.5299 60.5116L97.9132 59.588ZM98.9772 60.498L98.0954 60.9697L98.1001 60.9783L98.9772 60.498ZM99.2992 63.774H98.2992V63.8721L98.3183 63.9682L99.2992 63.774ZM99.5792 65.188L100.526 65.509L100.612 65.2559L100.56 64.9938L99.5792 65.188ZM99.2992 66.014V67.014H100.016L100.246 66.335L99.2992 66.014ZM96.9052 66.014H95.9052V67.014H96.9052V66.014ZM96.9052 65.328H97.9052V64.71L97.3524 64.4336L96.9052 65.328ZM96.7652 65.258L97.2124 64.3636L96.5678 64.0412L96.0581 64.5509L96.7652 65.258ZM96.3732 65.58L96.9732 66.38L96.9732 66.38L96.3732 65.58ZM95.6312 65.972L95.973 66.9118L95.9854 66.9073L95.9978 66.9024L95.6312 65.972ZM96.3592 64.236L96.1167 63.2658L96.1047 63.2689L96.3592 64.236ZM96.7652 64.11L97.1714 65.0238L97.7652 64.7599V64.11H96.7652ZM96.4992 63.494L95.9445 64.3261L95.9548 64.3329L95.9652 64.3395L96.4992 63.494ZM95.1132 64.194L94.5585 65.0261L94.5585 65.0261L95.1132 64.194ZM94.5252 65.14C94.2177 65.14 93.9495 65.0972 93.7137 65.0208L93.0967 66.9232C93.5516 67.0708 94.0301 67.14 94.5252 67.14V65.14ZM93.7449 65.0314C93.5993 64.9789 93.4952 64.8991 93.4087 64.7773L91.7777 65.9347C92.1019 66.3916 92.5392 66.7225 93.0656 66.9126L93.7449 65.0314ZM93.4087 64.7773C93.3662 64.7173 93.2852 64.5467 93.2852 64.152H91.2852C91.2852 64.784 91.4096 65.416 91.7777 65.9347L93.4087 64.7773ZM93.2852 64.152C93.2852 63.8568 93.3562 63.6943 93.4323 63.5939L91.8381 62.3861C91.4476 62.9017 91.2852 63.5138 91.2852 64.152H93.2852ZM93.4323 63.5939C93.5387 63.4534 93.6928 63.3317 93.936 63.2412L93.2385 61.3668C92.679 61.575 92.1984 61.9106 91.8381 62.3861L93.4323 63.5939ZM93.936 63.2412C94.2079 63.14 94.5397 63.08 94.9452 63.08V61.08C94.3428 61.08 93.7692 61.1693 93.2385 61.3668L93.936 63.2412ZM94.9452 63.08C95.3851 63.08 95.5742 63.1357 95.6182 63.156L96.4563 61.34C96.0149 61.1363 95.476 61.08 94.9452 61.08V63.08ZM95.6476 63.169C95.8523 63.2556 96.0118 63.3388 96.1332 63.4155L97.2012 61.7245C96.968 61.5772 96.7075 61.4458 96.4269 61.327L95.6476 63.169ZM97.318 63.3293L97.416 63.2453L96.1144 61.7267L96.0164 61.8107L97.318 63.3293ZM97.7652 62.486C97.7652 62.1577 97.7386 61.8364 97.6654 61.5435L95.7251 62.0285C95.7452 62.1089 95.7652 62.2543 95.7652 62.486H97.7652ZM97.6654 61.5435C97.5517 61.0886 97.2692 60.7198 96.8589 60.4918L95.8876 62.2402C95.8626 62.2263 95.823 62.1976 95.7861 62.1494C95.7492 62.1013 95.7319 62.0558 95.7251 62.0285L97.6654 61.5435ZM96.8947 60.5127C96.4884 60.2644 96.0009 60.212 95.5892 60.212V62.212C95.7217 62.212 95.8082 62.2219 95.8585 62.2317C95.9112 62.2421 95.8976 62.2473 95.8518 62.2193L96.8947 60.5127ZM95.5892 60.212C95.1813 60.212 94.7572 60.2505 94.3188 60.3236L94.6476 62.2964C94.9932 62.2388 95.3065 62.212 95.5892 62.212V60.212ZM94.3384 60.3205C93.9178 60.3821 93.5192 60.4654 93.1445 60.5725L93.694 62.4955C93.9726 62.4159 94.2834 62.3499 94.628 62.2995L94.3384 60.3205ZM93.1633 60.5673C92.8223 60.6576 92.4972 60.7646 92.2373 60.9022L93.1731 62.6698C93.2306 62.6394 93.3815 62.5784 93.6751 62.5007L93.1633 60.5673ZM93.7052 61.786V59.686H91.7052V61.786H93.7052ZM93.0396 60.6284C93.2434 60.5561 93.5839 60.4742 94.0932 60.3938L93.7813 58.4182C93.2266 58.5058 92.7457 58.6106 92.3708 58.7436L93.0396 60.6284ZM94.1071 60.3915C94.5742 60.3109 95.1763 60.266 95.9252 60.266V58.266C95.1062 58.266 94.3829 58.3144 93.7673 58.4205L94.1071 60.3915ZM95.9252 60.266C96.6981 60.266 97.2035 60.3675 97.5087 60.5025L98.3177 58.6735C97.6523 58.3792 96.8323 58.266 95.9252 58.266V60.266ZM97.5299 60.5116C97.8506 60.6447 98.0083 60.8067 98.0954 60.9697L99.859 60.0263C99.5168 59.3866 98.9652 58.9419 98.2966 58.6644L97.5299 60.5116ZM98.1001 60.9783C98.2175 61.1926 98.2992 61.4907 98.2992 61.912H100.299C100.299 61.232 100.166 60.5874 99.8543 60.0177L98.1001 60.9783ZM98.2992 61.912V63.774H100.299V61.912H98.2992ZM98.3183 63.9682L98.5983 65.3822L100.56 64.9938L100.28 63.5798L98.3183 63.9682ZM98.6322 64.867L98.3522 65.693L100.246 66.335L100.526 65.509L98.6322 64.867ZM99.2992 65.014H96.9052V67.014H99.2992V65.014ZM97.9052 66.014V65.328H95.9052V66.014H97.9052ZM97.3524 64.4336L97.2124 64.3636L96.318 66.1524L96.458 66.2224L97.3524 64.4336ZM96.0581 64.5509C96.0375 64.5716 95.9561 64.6429 95.7732 64.78L96.9732 66.38C97.1637 66.2371 97.3437 66.0938 97.4723 65.9651L96.0581 64.5509ZM95.7732 64.78C95.6812 64.8491 95.5212 64.9406 95.2647 65.0416L95.9978 66.9024C96.3573 66.7608 96.692 66.5909 96.9732 66.38L95.7732 64.78ZM95.2895 65.0322C95.1191 65.0942 94.8722 65.14 94.5252 65.14V67.14C95.037 67.14 95.5274 67.0738 95.973 66.9118L95.2895 65.0322ZM95.7152 65.306C96.0236 65.306 96.3289 65.278 96.6137 65.2031L96.1047 63.2689C96.0349 63.2873 95.9109 63.306 95.7152 63.306V65.306ZM96.6018 65.2061C96.7976 65.1572 97.0037 65.0983 97.1714 65.0238L96.3591 63.1962C96.3665 63.1929 96.3523 63.1995 96.3043 63.2144C96.2595 63.2284 96.1979 63.2456 96.1167 63.2659L96.6018 65.2061ZM97.7652 64.11V63.844H95.7652V64.11H97.7652ZM97.7652 63.844C97.7652 63.1873 97.2883 62.8096 97.0332 62.6485L95.9652 64.3395C95.9928 64.3569 95.9545 64.3389 95.9026 64.2706C95.8429 64.1921 95.7652 64.0444 95.7652 63.844H97.7652ZM97.0539 62.6619C96.6358 62.3832 96.1251 62.326 95.7012 62.326V64.326C95.8357 64.326 95.9208 64.3367 95.9677 64.3465C96.0168 64.3569 95.9961 64.3604 95.9445 64.3261L97.0539 62.6619ZM95.7012 62.326C95.3625 62.326 94.9298 62.3801 94.5587 62.6412C94.1234 62.9475 93.9452 63.4118 93.9452 63.858H95.9452C95.9452 63.8875 95.9398 63.9614 95.8962 64.0533C95.8503 64.1503 95.7811 64.2266 95.7097 64.2768C95.677 64.2999 95.6488 64.3139 95.6295 64.3221C95.6105 64.3301 95.5993 64.3327 95.5989 64.3328C95.5984 64.3329 95.6062 64.3311 95.6241 64.3293C95.6418 64.3275 95.6672 64.326 95.7012 64.326V62.326ZM93.9452 63.858C93.9452 64.2986 94.1343 64.7432 94.5585 65.0261L95.6679 63.3619C95.7455 63.4137 95.826 63.4955 95.8817 63.6068C95.9352 63.7139 95.9452 63.8071 95.9452 63.858H93.9452ZM94.5585 65.0261C94.939 65.2797 95.4093 65.306 95.7152 65.306V63.306C95.6639 63.306 95.6228 63.3043 95.5908 63.3019C95.5585 63.2994 95.5392 63.2965 95.5306 63.2949C95.5216 63.2932 95.5301 63.2941 95.5511 63.3016C95.5716 63.3089 95.6146 63.3264 95.6679 63.3619L94.5585 65.0261ZM100.977 66H99.9767V67H100.977V66ZM100.977 61.786H101.977V61.6958L101.961 61.6071L100.977 61.786ZM100.697 60.246L99.8052 59.793L99.6526 60.0934L99.7128 60.4249L100.697 60.246ZM101.131 59.392V58.392H100.517L100.239 58.9389L101.131 59.392ZM103.217 59.392H104.217V58.392H103.217V59.392ZM103.217 59.994H102.217V60.5292L102.662 60.826L103.217 59.994ZM103.343 60.078L102.788 60.91L103.438 61.3431L104.015 60.8179L103.343 60.078ZM103.763 59.756L104.327 60.5814L104.336 60.5752L103.763 59.756ZM107.207 59.966L106.457 60.6276L106.457 60.6276L107.207 59.966ZM107.837 63.746H106.837V63.8499L106.858 63.9515L107.837 63.746ZM108.131 65.146L109.076 65.4715L109.166 65.2106L109.109 64.9405L108.131 65.146ZM107.837 66V67H108.55L108.782 66.3255L107.837 66ZM105.317 66H104.317V67H105.317V66ZM105.079 61.52L104.283 62.126L104.299 62.1473L104.317 62.1676L105.079 61.52ZM104.365 61.226V60.226H104.215L104.072 60.2699L104.365 61.226ZM103.497 61.492L103.204 60.5359L102.497 60.7525V61.492H103.497ZM103.497 66V67H104.497V66H103.497ZM101.977 66V61.786H99.9767V66H101.977ZM101.961 61.6071L101.681 60.0671L99.7128 60.4249L99.9928 61.9649L101.961 61.6071ZM101.588 60.699L102.022 59.845L100.239 58.9389L99.8052 59.793L101.588 60.699ZM101.131 60.392H103.217V58.392H101.131V60.392ZM102.217 59.392V59.994H104.217V59.392H102.217ZM102.662 60.826L102.788 60.91L103.897 59.246L103.771 59.1619L102.662 60.826ZM104.015 60.8179C104.071 60.7674 104.17 60.6891 104.327 60.5813L103.198 58.9307C103.001 59.0656 102.82 59.2019 102.67 59.3381L104.015 60.8179ZM104.336 60.5752C104.445 60.4988 104.596 60.417 104.8 60.3368L104.069 58.4752C103.751 58.6004 103.453 58.7518 103.189 58.9368L104.336 60.5752ZM104.8 60.3368C104.928 60.2867 105.095 60.252 105.317 60.252V58.252C104.885 58.252 104.464 58.32 104.069 58.4752L104.8 60.3368ZM105.317 60.252C105.968 60.252 106.283 60.4307 106.457 60.6276L107.957 59.3044C107.29 58.5493 106.346 58.252 105.317 58.252V60.252ZM106.457 60.6276C106.666 60.865 106.837 61.2663 106.837 61.968H108.837C108.837 60.9524 108.587 60.019 107.957 59.3044L106.457 60.6276ZM106.837 61.968V63.746H108.837V61.968H106.837ZM106.858 63.9515L107.152 65.3515L109.109 64.9405L108.815 63.5405L106.858 63.9515ZM107.185 64.8205L106.891 65.6745L108.782 66.3255L109.076 65.4715L107.185 64.8205ZM107.837 65H105.317V67H107.837V65ZM106.317 66V62.332H104.317V66H106.317ZM106.317 62.332C106.317 61.844 106.209 61.3058 105.841 60.8724L104.317 62.1676C104.292 62.1391 104.291 62.1233 104.298 62.1443C104.305 62.1683 104.317 62.2266 104.317 62.332H106.317ZM105.874 60.914C105.478 60.3935 104.893 60.226 104.365 60.226V62.226C104.431 62.226 104.437 62.2363 104.407 62.2242C104.392 62.2177 104.37 62.2063 104.345 62.1879C104.321 62.1693 104.3 62.1479 104.283 62.126L105.874 60.914ZM104.072 60.2699L103.204 60.5359L103.79 62.4481L104.658 62.1821L104.072 60.2699ZM102.497 61.492V66H104.497V61.492H102.497ZM103.497 65H100.977V67H103.497V65ZM111.427 69.374L111.489 68.3759L111.473 68.375L111.458 68.3745L111.427 69.374ZM110.699 69.332L110.263 70.2323L110.423 70.3094L110.599 70.327L110.699 69.332ZM108.991 68.506L108.057 68.147L107.727 69.0057L108.555 69.4063L108.991 68.506ZM109.691 66.686L110 65.7349L109.098 65.442L108.757 66.327L109.691 66.686ZM111.889 67.4L111.58 68.3511L111.73 68.4H111.889V67.4ZM113.751 65.58H114.751V64.962L114.198 64.6856L113.751 65.58ZM113.611 65.51L114.058 64.6156L113.413 64.2932L112.904 64.8029L113.611 65.51ZM112.981 65.916L113.404 66.8223L113.416 66.8162L112.981 65.916ZM110.377 65.79L109.898 66.6679L109.906 66.6721L109.913 66.6762L110.377 65.79ZM109.369 64.726L108.481 65.1868L108.485 65.1935L108.488 65.2001L109.369 64.726ZM109.383 60.75L110.277 61.1972L110.28 61.1909L109.383 60.75ZM110.377 59.588L109.868 58.727L109.859 58.7323L110.377 59.588ZM112.841 59.434L112.427 60.3444L112.437 60.3489L112.841 59.434ZM113.471 59.84L112.684 60.4578L114.471 62.7313V59.84H113.471ZM113.471 59.378V58.378H112.471V59.378H113.471ZM116.005 59.378L116.991 59.2136L116.852 58.378H116.005V59.378ZM116.145 60.218L117.128 60.3983L117.16 60.2262L117.131 60.0536L116.145 60.218ZM115.991 61.058L115.007 60.8777L114.99 60.9685L114.991 61.0608L115.991 61.058ZM116.005 65.986H117.005L117.005 65.9832L116.005 65.986ZM115.529 67.946L114.682 67.4131L114.675 67.4246L115.529 67.946ZM114.213 69.052L113.833 68.1267L113.828 68.1289L114.213 69.052ZM113.163 64.068L112.846 63.1193L112.846 63.1193L113.163 64.068ZM113.471 63.942L113.967 64.8102L114.471 64.5223V63.942H113.471ZM113.471 61.324H114.471V60.824L114.071 60.524L113.471 61.324ZM113.261 61.24L112.998 62.2048L112.998 62.2048L113.261 61.24ZM111.973 61.548L111.237 60.8709L111.973 61.548ZM111.959 63.802L111.208 64.4626L111.215 64.4702L111.221 64.4777L111.959 63.802ZM112.225 68.402C112.017 68.402 111.772 68.3937 111.489 68.3759L111.364 70.3721C111.678 70.3917 111.966 70.402 112.225 70.402V68.402ZM111.458 68.3745C111.17 68.3655 110.953 68.3524 110.798 68.337L110.599 70.327C110.818 70.3489 111.086 70.3638 111.395 70.3735L111.458 68.3745ZM111.134 68.4317L109.426 67.6057L108.555 69.4063L110.263 70.2323L111.134 68.4317ZM109.924 68.865L110.624 67.045L108.757 66.327L108.057 68.147L109.924 68.865ZM109.382 67.6371L111.58 68.3511L112.198 66.4489L110 65.7349L109.382 67.6371ZM111.889 68.4C112.624 68.4 113.361 68.2504 113.926 67.7792C114.525 67.2792 114.751 66.5704 114.751 65.846H112.751C112.751 66.1576 112.666 66.2258 112.644 66.2438C112.588 66.2906 112.395 66.4 111.889 66.4V68.4ZM114.751 65.846V65.58H112.751V65.846H114.751ZM114.198 64.6856L114.058 64.6156L113.163 66.4044L113.303 66.4744L114.198 64.6856ZM112.904 64.8029C112.904 64.8023 112.898 64.8085 112.882 64.8207C112.867 64.8328 112.844 64.849 112.813 64.8689C112.751 64.9094 112.663 64.9588 112.545 65.0158L113.416 66.8162C113.743 66.6579 114.07 66.4645 114.318 66.2171L112.904 64.8029ZM112.558 65.0098C112.485 65.0439 112.225 65.112 111.651 65.112V67.112C112.289 67.112 112.917 67.0494 113.404 66.8222L112.558 65.0098ZM111.651 65.112C111.382 65.112 111.116 65.048 110.84 64.9038L109.913 66.6762C110.459 66.9613 111.042 67.112 111.651 67.112V65.112ZM110.855 64.9121C110.643 64.7965 110.435 64.5975 110.249 64.2519L108.488 65.2001C108.825 65.8251 109.288 66.3355 109.898 66.6679L110.855 64.9121ZM110.256 64.2652C110.102 63.969 109.991 63.5129 109.991 62.836H107.991C107.991 63.7084 108.131 64.5123 108.481 65.1868L110.256 64.2652ZM109.991 62.836C109.991 62.054 110.111 61.5301 110.277 61.1972L108.488 60.3028C108.132 61.0152 107.991 61.882 107.991 62.836H109.991ZM110.28 61.1909C110.479 60.7856 110.695 60.5642 110.894 60.4437L109.859 58.7323C109.256 59.0971 108.809 59.6503 108.485 60.3091L110.28 61.1909ZM110.885 60.4489C111.156 60.2891 111.406 60.224 111.651 60.224V58.224C111.018 58.224 110.419 58.4016 109.868 58.7271L110.885 60.4489ZM111.651 60.224C112.051 60.224 112.292 60.2833 112.427 60.3444L113.254 58.5236C112.773 58.3047 112.221 58.224 111.651 58.224V60.224ZM112.437 60.3489C112.565 60.4053 112.647 60.4503 112.694 60.4811C112.717 60.4959 112.726 60.5035 112.726 60.5028C112.725 60.5025 112.708 60.4881 112.684 60.4578L114.257 59.2222C113.992 58.8846 113.582 58.6681 113.244 58.5191L112.437 60.3489ZM114.471 59.84V59.378H112.471V59.84H114.471ZM113.471 60.378H116.005V58.378H113.471V60.378ZM115.018 59.5424L115.158 60.3824L117.131 60.0536L116.991 59.2136L115.018 59.5424ZM115.161 60.0377L115.007 60.8777L116.974 61.2383L117.128 60.3983L115.161 60.0377ZM114.991 61.0608L115.005 65.9888L117.005 65.9832L116.991 61.0552L114.991 61.0608ZM115.005 65.986C115.005 66.6638 114.87 67.1152 114.682 67.4132L116.375 68.4788C116.822 67.7688 117.005 66.9136 117.005 65.986H115.005ZM114.675 67.4246C114.483 67.739 114.215 67.9705 113.833 68.1267L114.592 69.9773C115.349 69.6668 115.958 69.161 116.382 68.4675L114.675 67.4246ZM113.828 68.1289C113.417 68.3001 112.891 68.402 112.225 68.402V70.402C113.089 70.402 113.888 70.2706 114.597 69.9751L113.828 68.1289ZM112.701 65.138C112.961 65.138 113.224 65.1017 113.479 65.0167L112.846 63.1193C112.821 63.1277 112.776 63.138 112.701 63.138V65.138ZM113.479 65.0167C113.634 64.965 113.813 64.8981 113.967 64.8102L112.974 63.0738C112.993 63.0633 112.994 63.0645 112.966 63.076C112.941 63.0863 112.902 63.1009 112.846 63.1193L113.479 65.0167ZM114.471 63.942V61.324H112.471V63.942H114.471ZM114.071 60.524C113.867 60.3716 113.632 60.3047 113.524 60.2752L112.998 62.2048C113.026 62.2125 113.03 62.2151 113.019 62.2105C113.012 62.2079 112.996 62.2013 112.974 62.1896C112.953 62.1784 112.915 62.1575 112.871 62.124L114.071 60.524ZM113.524 60.2752C113.297 60.2135 113.056 60.198 112.841 60.198V62.198C112.904 62.198 112.949 62.2006 112.979 62.2035C113.01 62.2067 113.014 62.2092 112.998 62.2048L113.524 60.2752ZM112.841 60.198C112.242 60.198 111.669 60.4005 111.237 60.8709L112.709 62.2251C112.714 62.219 112.717 62.2167 112.718 62.2162C112.719 62.2158 112.72 62.2147 112.725 62.2129C112.732 62.2098 112.766 62.198 112.841 62.198V60.198ZM111.237 60.8709C110.771 61.3768 110.651 62.0612 110.651 62.682H112.651C112.651 62.4846 112.671 62.3561 112.693 62.2797C112.714 62.2058 112.729 62.2024 112.709 62.2251L111.237 60.8709ZM110.651 62.682C110.651 63.2908 110.766 63.9601 111.208 64.4626L112.709 63.1414C112.728 63.1631 112.713 63.1573 112.692 63.0818C112.671 63.0044 112.651 62.8763 112.651 62.682H110.651ZM111.221 64.4777C111.605 64.8966 112.115 65.138 112.701 65.138V63.138C112.693 63.138 112.692 63.1373 112.696 63.1381C112.7 63.1389 112.705 63.1405 112.711 63.143C112.716 63.1455 112.718 63.1472 112.717 63.146C112.715 63.1447 112.708 63.1391 112.696 63.1263L111.221 64.4777ZM118.247 65.972L117.907 66.9126L117.923 66.9181L117.939 66.9232L118.247 65.972ZM117.477 62.99L118.274 63.5939L118.274 63.5939L117.477 62.99ZM118.429 62.304L118.778 63.2412L118.778 63.2412L118.429 62.304ZM120.879 62.248L120.46 63.156L120.475 63.1627L120.489 63.169L120.879 62.248ZM121.509 62.57L120.975 63.4155L121.599 63.8097L122.16 63.3293L121.509 62.57ZM121.607 62.486L122.258 63.2453L122.607 62.9459V62.486H121.607ZM121.537 61.786L122.507 61.5435L122.507 61.5435L121.537 61.786ZM121.215 61.366L120.694 62.2193L120.711 62.2301L120.729 62.2402L121.215 61.366ZM119.325 61.31L119.47 62.2995L119.48 62.298L119.489 62.2964L119.325 61.31ZM118.261 61.534L118.517 62.5007L118.526 62.4982L118.536 62.4955L118.261 61.534ZM117.547 61.786H116.547V63.4469L118.015 62.6698L117.547 61.786ZM117.547 59.686L117.213 58.7436L116.547 58.9797V59.686H117.547ZM118.779 59.406L118.935 60.3939L118.949 60.3915L118.779 59.406ZM122.755 59.588L122.351 60.5025L122.361 60.5072L122.372 60.5116L122.755 59.588ZM123.819 60.498L122.937 60.9697L122.942 60.9783L123.819 60.498ZM124.141 63.774H123.141V63.8721L123.16 63.9682L124.141 63.774ZM124.421 65.188L125.368 65.509L125.454 65.2559L125.402 64.9938L124.421 65.188ZM124.141 66.014V67.014H124.858L125.088 66.335L124.141 66.014ZM121.747 66.014H120.747V67.014H121.747V66.014ZM121.747 65.328H122.747V64.71L122.194 64.4336L121.747 65.328ZM121.607 65.258L122.054 64.3636L121.41 64.0412L120.9 64.5509L121.607 65.258ZM121.215 65.58L121.815 66.38L121.815 66.38L121.215 65.58ZM120.473 65.972L120.815 66.9118L120.827 66.9073L120.84 66.9024L120.473 65.972ZM121.201 64.236L120.958 63.2658L120.947 63.2689L121.201 64.236ZM121.607 64.11L122.013 65.0238L122.607 64.7599V64.11H121.607ZM121.341 63.494L120.786 64.3261L120.797 64.3329L120.807 64.3395L121.341 63.494ZM119.955 64.194L119.4 65.0261L119.4 65.0261L119.955 64.194ZM119.367 65.14C119.059 65.14 118.791 65.0972 118.556 65.0208L117.939 66.9232C118.393 67.0708 118.872 67.14 119.367 67.14V65.14ZM118.587 65.0314C118.441 64.9789 118.337 64.8991 118.251 64.7773L116.62 65.9347C116.944 66.3916 117.381 66.7225 117.907 66.9126L118.587 65.0314ZM118.251 64.7773C118.208 64.7173 118.127 64.5467 118.127 64.152H116.127C116.127 64.784 116.251 65.416 116.62 65.9347L118.251 64.7773ZM118.127 64.152C118.127 63.8568 118.198 63.6943 118.274 63.5939L116.68 62.3861C116.289 62.9017 116.127 63.5138 116.127 64.152H118.127ZM118.274 63.5939C118.381 63.4534 118.535 63.3317 118.778 63.2412L118.08 61.3668C117.521 61.575 117.04 61.9106 116.68 62.3861L118.274 63.5939ZM118.778 63.2412C119.05 63.14 119.381 63.08 119.787 63.08V61.08C119.185 61.08 118.611 61.1693 118.08 61.3668L118.778 63.2412ZM119.787 63.08C120.227 63.08 120.416 63.1357 120.46 63.156L121.298 61.34C120.857 61.1363 120.318 61.08 119.787 61.08V63.08ZM120.489 63.169C120.694 63.2556 120.854 63.3388 120.975 63.4155L122.043 61.7245C121.81 61.5772 121.549 61.4458 121.269 61.327L120.489 63.169ZM122.16 63.3293L122.258 63.2453L120.956 61.7267L120.858 61.8107L122.16 63.3293ZM122.607 62.486C122.607 62.1577 122.58 61.8364 122.507 61.5435L120.567 62.0285C120.587 62.1089 120.607 62.2543 120.607 62.486H122.607ZM122.507 61.5435C122.393 61.0886 122.111 60.7198 121.701 60.4918L120.729 62.2402C120.704 62.2263 120.665 62.1976 120.628 62.1494C120.591 62.1013 120.574 62.0558 120.567 62.0285L122.507 61.5435ZM121.736 60.5127C121.33 60.2644 120.843 60.212 120.431 60.212V62.212C120.564 62.212 120.65 62.2219 120.7 62.2317C120.753 62.2421 120.739 62.2473 120.694 62.2193L121.736 60.5127ZM120.431 60.212C120.023 60.212 119.599 60.2505 119.161 60.3236L119.489 62.2964C119.835 62.2388 120.148 62.212 120.431 62.212V60.212ZM119.18 60.3205C118.76 60.3821 118.361 60.4654 117.986 60.5725L118.536 62.4955C118.814 62.4159 119.125 62.3499 119.47 62.2995L119.18 60.3205ZM118.005 60.5673C117.664 60.6576 117.339 60.7646 117.079 60.9022L118.015 62.6698C118.072 62.6394 118.223 62.5784 118.517 62.5007L118.005 60.5673ZM118.547 61.786V59.686H116.547V61.786H118.547ZM117.881 60.6284C118.085 60.5561 118.426 60.4742 118.935 60.3938L118.623 58.4182C118.068 58.5058 117.587 58.6106 117.213 58.7436L117.881 60.6284ZM118.949 60.3915C119.416 60.3109 120.018 60.266 120.767 60.266V58.266C119.948 58.266 119.225 58.3144 118.609 58.4205L118.949 60.3915ZM120.767 60.266C121.54 60.266 122.045 60.3675 122.351 60.5025L123.16 58.6735C122.494 58.3792 121.674 58.266 120.767 58.266V60.266ZM122.372 60.5116C122.692 60.6447 122.85 60.8067 122.937 60.9697L124.701 60.0263C124.359 59.3866 123.807 58.9419 123.138 58.6644L122.372 60.5116ZM122.942 60.9783C123.059 61.1926 123.141 61.4907 123.141 61.912H125.141C125.141 61.232 125.008 60.5874 124.696 60.0177L122.942 60.9783ZM123.141 61.912V63.774H125.141V61.912H123.141ZM123.16 63.9682L123.44 65.3822L125.402 64.9938L125.122 63.5798L123.16 63.9682ZM123.474 64.867L123.194 65.693L125.088 66.335L125.368 65.509L123.474 64.867ZM124.141 65.014H121.747V67.014H124.141V65.014ZM122.747 66.014V65.328H120.747V66.014H122.747ZM122.194 64.4336L122.054 64.3636L121.16 66.1524L121.3 66.2224L122.194 64.4336ZM120.9 64.5509C120.879 64.5716 120.798 64.6429 120.615 64.78L121.815 66.38C122.006 66.2371 122.185 66.0938 122.314 65.9651L120.9 64.5509ZM120.615 64.78C120.523 64.8491 120.363 64.9406 120.107 65.0416L120.84 66.9024C121.199 66.7608 121.534 66.5909 121.815 66.38L120.615 64.78ZM120.131 65.0322C119.961 65.0942 119.714 65.14 119.367 65.14V67.14C119.879 67.14 120.369 67.0738 120.815 66.9118L120.131 65.0322ZM120.557 65.306C120.865 65.306 121.171 65.278 121.456 65.2031L120.947 63.2689C120.877 63.2873 120.753 63.306 120.557 63.306V65.306ZM121.444 65.2061C121.639 65.1572 121.845 65.0983 122.013 65.0238L121.201 63.1962C121.208 63.1929 121.194 63.1995 121.146 63.2144C121.101 63.2284 121.04 63.2456 120.958 63.2659L121.444 65.2061ZM122.607 64.11V63.844H120.607V64.11H122.607ZM122.607 63.844C122.607 63.1873 122.13 62.8096 121.875 62.6485L120.807 64.3395C120.835 64.3569 120.796 64.3389 120.744 64.2706C120.685 64.1921 120.607 64.0444 120.607 63.844H122.607ZM121.896 62.6619C121.478 62.3832 120.967 62.326 120.543 62.326V64.326C120.678 64.326 120.763 64.3367 120.81 64.3465C120.859 64.3569 120.838 64.3604 120.786 64.3261L121.896 62.6619ZM120.543 62.326C120.204 62.326 119.772 62.3801 119.401 62.6412C118.965 62.9475 118.787 63.4118 118.787 63.858H120.787C120.787 63.8875 120.782 63.9614 120.738 64.0533C120.692 64.1503 120.623 64.2266 120.552 64.2768C120.519 64.2999 120.491 64.3139 120.471 64.3221C120.452 64.3301 120.441 64.3327 120.441 64.3328C120.44 64.3329 120.448 64.3311 120.466 64.3293C120.484 64.3275 120.509 64.326 120.543 64.326V62.326ZM118.787 63.858C118.787 64.2986 118.976 64.7432 119.4 65.0261L120.51 63.3619C120.587 63.4137 120.668 63.4955 120.723 63.6068C120.777 63.7139 120.787 63.8071 120.787 63.858H118.787ZM119.4 65.0261C119.781 65.2797 120.251 65.306 120.557 65.306V63.306C120.506 63.306 120.465 63.3043 120.433 63.3019C120.4 63.2994 120.381 63.2965 120.372 63.2949C120.363 63.2932 120.372 63.2941 120.393 63.3016C120.413 63.3089 120.456 63.3264 120.51 63.3619L119.4 65.0261Z" fill="black"/>
<g clip-path="url(#clip0)">
<path d="M50.1558 27.6948C50.9552 27.3785 51.8005 27.1661 52.6663 27.0639C58.2883 26.2472 64.3953 27.059 68.782 30.5507C71.698 33.0419 73.7422 36.2463 74.6632 39.7698C76.0636 44.4992 76.0593 49.477 74.6506 54.2044C73.5218 57.9693 71.499 61.5983 71.471 65.4963C71.4462 69.1821 73.1674 73.1291 71.2623 76.3899C70.2542 77.9446 68.7149 79.164 66.8741 79.866C50.1081 86.9503 35.3382 66.6344 34.7595 53.8824L34.7566 53.841C34.6015 48.2136 36.3099 42.672 39.6642 37.9222C42.0412 34.4488 45.93 29.5221 50.1567 27.6941L50.1558 27.6948Z" fill="#FCEA2B" stroke="#FCEA2B" stroke-width="2" stroke-miterlimit="10"/>
<path d="M68.7353 30.5841C64.3486 27.0925 58.2425 26.28 52.6205 27.0967C51.833 27.1957 51.0618 27.3808 50.3242 27.6481C54.5102 27.653 58.5605 28.9859 61.7638 31.4129C64.6798 33.9041 66.724 37.1085 67.6451 40.632C69.0452 45.3617 69.0405 50.3397 67.6316 55.0672C66.5036 58.8315 64.4809 62.4604 64.4529 66.3584C64.4272 70.0449 66.1493 73.9913 64.2442 77.2521C63.2361 78.8068 61.6968 80.0262 59.8559 80.7282C59.3607 80.9376 58.8674 81.1192 58.3758 81.2812C61.2805 81.5213 64.2028 81.0433 66.8283 79.8988C68.6687 79.1969 70.2077 77.9777 71.2156 76.4234C73.1216 73.1619 71.3995 69.2155 71.425 65.5305C71.4523 61.6317 73.4744 58.002 74.603 54.2385C76.0124 49.5108 76.0174 44.5326 74.6174 39.8026C73.6964 36.2791 71.6522 33.0747 68.7362 30.5835L68.7353 30.5841Z" fill="#F1B31C" stroke="#F1B31C" stroke-width="2" stroke-linecap="round" stroke-linejoin="round"/>
<path d="M44.0954 29.8378C44.0954 29.8378 44.9727 37.3048 41.2362 42.3179C37.4998 47.3309 29.4967 49.8249 29.4967 49.8249C29.4967 49.8249 28.6194 42.3579 32.3551 37.3441C36.0909 32.3303 44.0954 29.8378 44.0954 29.8378Z" fill="#B1CC33"/>
<path d="M52.8192 26.9532C58.5289 26.0749 64.7087 26.8346 69.1133 30.3134C72.0414 32.8004 74.0789 36.0178 74.965 39.5538C76.3269 44.3373 76.2622 49.36 74.7773 54.1137C73.5882 57.9218 71.4936 61.6021 71.418 65.5342C71.3484 69.2522 73.0462 73.2159 71.0747 76.5243C70.0315 78.1039 68.4603 79.3459 66.5858 80.0724C49.5029 87.3837 34.777 67.0362 34.3437 54.1801L34.3417 54.138C34.1875 51.9712 34.3862 49.7957 34.9318 47.6808" stroke="black" stroke-width="2" stroke-linecap="round" stroke-linejoin="round"/>
<path d="M42.8852 26.8066L46.8117 31.2547" stroke="black" stroke-width="2" stroke-linecap="round" stroke-linejoin="round"/>
<path d="M44.0954 29.8378C44.0954 29.8378 44.9727 37.3048 41.2362 42.3179C37.4998 47.3309 29.4967 49.8249 29.4967 49.8249C29.4967 49.8249 28.6194 42.3579 32.3551 37.3441C36.0909 32.3303 44.0954 29.8378 44.0954 29.8378Z" stroke="black" stroke-width="2" stroke-linecap="round" stroke-linejoin="round"/>
</g>
<path d="M81.7 52H80.7V53H81.7V52ZM81.7 43.378H82.7V42.378H81.7V43.378ZM79.54 43.378H78.54V44.378H79.54V43.378ZM79.54 39.976L79.4245 38.9827L78.54 39.0855V39.976H79.54ZM85.732 39.256L86.7184 39.0916L86.5619 38.1528L85.6165 38.2627L85.732 39.256ZM85.912 40.336L86.907 40.4355L86.9203 40.303L86.8984 40.1716L85.912 40.336ZM85.732 42.136L84.737 42.0365L84.732 42.0861V42.136H85.732ZM85.732 52V53H86.732V52H85.732ZM82.7 52V43.378H80.7V52H82.7ZM81.7 42.378H79.54V44.378H81.7V42.378ZM80.54 43.378V39.976H78.54V43.378H80.54ZM79.6555 40.9693L85.8475 40.2493L85.6165 38.2627L79.4245 38.9827L79.6555 40.9693ZM84.7456 39.4204L84.9256 40.5004L86.8984 40.1716L86.7184 39.0916L84.7456 39.4204ZM84.917 40.2365L84.737 42.0365L86.727 42.2355L86.907 40.4355L84.917 40.2365ZM84.732 42.136V52H86.732V42.136H84.732ZM85.732 51H81.7V53H85.732V51ZM88.438 52H87.438V53H88.438V52ZM88.438 42.208H89.438V42.1099L89.419 42.0138L88.438 42.208ZM88.078 40.39L87.1249 40.0874L87.0472 40.3323L87.0971 40.5842L88.078 40.39ZM88.438 39.256V38.256H87.7063L87.4849 38.9534L88.438 39.256ZM92.398 39.256H93.398V38.256H92.398V39.256ZM92.398 41.416L93.3961 41.4788L93.398 41.4474V41.416H92.398ZM92.218 44.278L91.22 44.2152L91.1532 45.278H92.218V44.278ZM92.758 44.278V45.278H93.3539L93.6375 44.754L92.758 44.278ZM95.476 39.256V38.256H94.8802L94.5966 38.78L95.476 39.256ZM99.778 39.256H100.778V38.256H99.778V39.256ZM99.778 40.336L100.595 40.912L100.778 40.6529V40.336H99.778ZM96.214 45.394L95.3966 44.818L94.9618 45.4351L95.4361 46.0223L96.214 45.394ZM99.238 49.138L98.4601 49.7663L98.4934 49.8076L98.5309 49.8451L99.238 49.138ZM101.02 50.92H102.02V50.5058L101.727 50.2129L101.02 50.92ZM101.02 52V53H102.02V52H101.02ZM96.25 52L95.4316 52.5746L95.7303 53H96.25V52ZM93.154 47.59L93.9725 47.0154L93.5826 46.46L92.9224 46.6172L93.154 47.59ZM92.398 47.77L92.1664 46.7972L91.398 46.9801V47.77H92.398ZM92.398 49.84H91.398V49.9228L91.4117 50.0044L92.398 49.84ZM92.578 50.92L93.5644 51.0844L93.5918 50.92L93.5644 50.7556L92.578 50.92ZM92.398 52V53H93.2452L93.3844 52.1644L92.398 52ZM89.438 52V42.208H87.438V52H89.438ZM89.419 42.0138L89.059 40.1958L87.0971 40.5842L87.4571 42.4022L89.419 42.0138ZM89.0312 40.6926L89.3912 39.5586L87.4849 38.9534L87.1249 40.0874L89.0312 40.6926ZM88.438 40.256H92.398V38.256H88.438V40.256ZM91.398 39.256V41.416H93.398V39.256H91.398ZM91.4 41.3532L91.22 44.2152L93.2161 44.3408L93.3961 41.4788L91.4 41.3532ZM92.218 45.278H92.758V43.278H92.218V45.278ZM93.6375 44.754L96.3555 39.732L94.5966 38.78L91.8786 43.802L93.6375 44.754ZM95.476 40.256H99.778V38.256H95.476V40.256ZM98.778 39.256V40.336H100.778V39.256H98.778ZM98.9606 39.76L95.3966 44.818L97.0315 45.97L100.595 40.912L98.9606 39.76ZM95.4361 46.0223L98.4601 49.7663L100.016 48.5097L96.992 44.7657L95.4361 46.0223ZM98.5309 49.8451L100.313 51.6271L101.727 50.2129L99.9452 48.4309L98.5309 49.8451ZM100.02 50.92V52H102.02V50.92H100.02ZM101.02 51H96.25V53H101.02V51ZM97.0685 51.4254L93.9725 47.0154L92.3356 48.1646L95.4316 52.5746L97.0685 51.4254ZM92.9224 46.6172L92.1664 46.7972L92.6297 48.7428L93.3857 48.5628L92.9224 46.6172ZM91.398 47.77V49.84H93.398V47.77H91.398ZM91.4117 50.0044L91.5917 51.0844L93.5644 50.7556L93.3844 49.6756L91.4117 50.0044ZM91.5917 50.7556L91.4117 51.8356L93.3844 52.1644L93.5644 51.0844L91.5917 50.7556ZM92.398 51H88.438V53H92.398V51ZM104.135 42.982L103.481 43.7384L104.135 44.3041L104.789 43.7384L104.135 42.982ZM101.471 40.678L100.82 39.9191L99.939 40.675L100.817 41.4344L101.471 40.678ZM104.135 38.392L104.786 37.6331L104.135 37.0743L103.484 37.6331L104.135 38.392ZM106.799 40.678L107.453 41.4344L108.331 40.675L107.45 39.9191L106.799 40.678ZM102.137 52H101.137V53H102.137V52ZM102.137 46.042H103.137V45.9129L103.104 45.7881L102.137 46.042ZM101.759 44.602L100.809 44.2904L100.717 44.5707L100.792 44.8559L101.759 44.602ZM102.119 43.504V42.504H101.395L101.169 43.1924L102.119 43.504ZM106.097 43.504H107.097V42.504H106.097V43.504ZM106.097 52V53H107.097V52H106.097ZM104.789 42.2256L102.125 39.9216L100.817 41.4344L103.481 43.7384L104.789 42.2256ZM102.122 41.4369L104.786 39.1509L103.484 37.6331L100.82 39.9191L102.122 41.4369ZM103.484 39.1509L106.148 41.4369L107.45 39.9191L104.786 37.6331L103.484 39.1509ZM106.145 39.9216L103.481 42.2256L104.789 43.7384L107.453 41.4344L106.145 39.9216ZM103.137 52V46.042H101.137V52H103.137ZM103.104 45.7881L102.726 44.3481L100.792 44.8559L101.17 46.2959L103.104 45.7881ZM102.709 44.9136L103.069 43.8156L101.169 43.1924L100.809 44.2904L102.709 44.9136ZM102.119 44.504H106.097V42.504H102.119V44.504ZM105.097 43.504V52H107.097V43.504H105.097ZM106.097 51H102.137V53H106.097V51ZM107.781 52H106.781V53H107.781V52ZM107.781 42.136H108.781V42.0321L108.76 41.9305L107.781 42.136ZM107.403 40.336L106.459 40.0056L106.367 40.2687L106.424 40.5415L107.403 40.336ZM107.781 39.256V38.256H107.072L106.837 38.9256L107.781 39.256ZM111.741 39.256H112.741V38.256H111.741V39.256ZM111.741 52V53H112.741V52H111.741ZM108.781 52V42.136H106.781V52H108.781ZM108.76 41.9305L108.382 40.1305L106.424 40.5415L106.802 42.3415L108.76 41.9305ZM108.347 40.6664L108.725 39.5864L106.837 38.9256L106.459 40.0056L108.347 40.6664ZM107.781 40.256H111.741V38.256H107.781V40.256ZM110.741 39.256V52H112.741V39.256H110.741ZM111.741 51H107.781V53H111.741V51ZM114.125 51.136L114.752 50.3572L114.752 50.3572L114.125 51.136ZM114.125 44.368L114.745 45.1521L114.752 45.1468L114.125 44.368ZM121.127 44.368L120.483 45.1335L120.49 45.139L121.127 44.368ZM121.127 51.136L121.77 51.9015L121.77 51.9015L121.127 51.136ZM118.175 49.03L118.956 49.6547L118.965 49.6425L118.975 49.63L118.175 49.03ZM118.175 46.474L117.368 47.0654L117.381 47.0823L117.394 47.0987L118.175 46.474ZM117.041 46.474L117.796 47.1289L117.796 47.1289L117.041 46.474ZM117.041 49.03L116.265 49.6606L116.275 49.6729L116.285 49.6849L117.041 49.03ZM117.617 51.18C116.308 51.18 115.389 50.87 114.752 50.3572L113.497 51.9148C114.589 52.794 115.998 53.18 117.617 53.18V51.18ZM114.752 50.3572C114.209 49.9194 113.829 49.1384 113.829 47.752H111.829C111.829 49.4856 112.313 50.9606 113.497 51.9148L114.752 50.3572ZM113.829 47.752C113.829 46.3491 114.211 45.5753 114.745 45.152L113.504 43.584C112.311 44.5287 111.829 46.0109 111.829 47.752H113.829ZM114.752 45.1468C115.389 44.634 116.308 44.324 117.617 44.324V42.324C115.998 42.324 114.589 42.71 113.497 43.5892L114.752 45.1468ZM117.617 44.324C118.986 44.324 119.896 44.6395 120.483 45.1335L121.77 43.6025C120.702 42.7045 119.271 42.324 117.617 42.324V44.324ZM120.49 45.139C120.997 45.5579 121.369 46.3359 121.369 47.752H123.369C123.369 46.0241 122.913 44.5461 121.764 43.597L120.49 45.139ZM121.369 47.752C121.369 49.1515 120.999 49.9369 120.483 50.3705L121.77 51.9015C122.91 50.9431 123.369 49.4725 123.369 47.752H121.369ZM120.483 50.3705C119.896 50.8645 118.986 51.18 117.617 51.18V53.18C119.271 53.18 120.702 52.7995 121.77 51.9015L120.483 50.3705ZM117.617 50.3C118.152 50.3 118.624 50.0689 118.956 49.6547L117.394 48.4053C117.404 48.3925 117.436 48.3594 117.492 48.3323C117.548 48.3051 117.596 48.3 117.617 48.3V50.3ZM118.975 49.63C119.191 49.3414 119.278 48.9964 119.323 48.7332C119.372 48.4444 119.391 48.112 119.391 47.752H117.391C117.391 48.052 117.374 48.2626 117.351 48.3998C117.339 48.4673 117.329 48.5018 117.325 48.5122C117.321 48.5252 117.331 48.4878 117.375 48.43L118.975 49.63ZM119.391 47.752C119.391 47.3872 119.372 47.0514 119.323 46.7618C119.279 46.5042 119.191 46.1438 118.956 45.8493L117.394 47.0987C117.339 47.0302 117.324 46.9816 117.327 46.9909C117.329 46.9966 117.339 47.028 117.351 47.0952C117.374 47.2316 117.391 47.4448 117.391 47.752H119.391ZM118.981 45.8826C118.645 45.424 118.147 45.204 117.617 45.204V47.204C117.61 47.204 117.564 47.2022 117.501 47.1717C117.435 47.1399 117.391 47.0962 117.368 47.0654L118.981 45.8826ZM117.617 45.204C117.084 45.204 116.621 45.4311 116.285 45.8191L117.796 47.1289C117.794 47.1316 117.772 47.1556 117.726 47.177C117.68 47.1988 117.638 47.204 117.617 47.204V45.204ZM116.285 45.8191C116.029 46.1147 115.93 46.4826 115.882 46.7484C115.828 47.0439 115.807 47.3847 115.807 47.752H117.807C117.807 47.4473 117.825 47.2391 117.849 47.1086C117.855 47.0779 117.86 47.055 117.864 47.0387C117.869 47.0223 117.871 47.0151 117.871 47.0153C117.871 47.0154 117.867 47.0265 117.856 47.0451C117.846 47.0637 117.827 47.0937 117.796 47.1289L116.285 45.8191ZM115.807 47.752C115.807 48.1146 115.828 48.4519 115.882 48.7466C115.931 49.0176 116.028 49.3699 116.265 49.6606L117.817 48.3994C117.864 48.457 117.877 48.4966 117.874 48.488C117.871 48.4814 117.861 48.4507 117.849 48.3864C117.825 48.2551 117.807 48.0494 117.807 47.752H115.807ZM116.285 49.6849C116.621 50.0729 117.084 50.3 117.617 50.3V48.3C117.638 48.3 117.68 48.3052 117.726 48.327C117.772 48.3484 117.794 48.3724 117.796 48.3751L116.285 49.6849Z" fill="black"/>
<defs>
<clipPath id="clip0">
<rect width="79.5193" height="77.6714" fill="white" transform="matrix(0.81306 -0.58218 0.661792 0.749687 0 46.2945)"/>
</clipPath>
</defs>
</svg>
